PathFileType	4	(X/Y/Z)	7_coords_data.trc
DataRate	CameraRate	NumFrames	NumMarkers	Units	OrigDataRate	OrigDataStartFrame	OrigNumFrames
30.0	30.0	7	21	m	30.0	30	49
Frame#	Time	THUMB_TIP	THUMB_IP	THUMB_MCP	THUMB_CMC	INDEX_TIP	INDEX_DIP	INDEX_PIP	INDEX_MCP	MIDDLE_TIP	MIDDLE_DIP	MIDDLE_PIP	MIDDLE_MCP	RING_TIP	RING_DIP	RING_PIP	RING_MCP	PINKY_TIP	PINKY_DIP	PINKY_PIP	PINKY_MCP	WRIST
X1	Y1	Z1	X2	Y2	Z2	X3	Y3	Z3	X4	Y4	Z4	X5	Y5	Z5	X6	Y6	Z6	X7	Y7	Z7	X8	Y8	Z8	X9	Y9	Z9	X10	Y10	Z10	X11	Y11	Z11	X12	Y12	Z12	X13	Y13	Z13	X14	Y14	Z14	X15	Y15	Z15	X16	Y16	Z16	X17	Y17	Z17	X18	Y18	Z18	X19	Y19	Z19	X20	Y20	Z20	X21	Y21	Z21
28	0.9666666666666625	0.5139794269715897	-0.010870493049069396	-0.1607088011506036	0.5022891603692755	-0.016661844940155213	-0.14179325436917445	0.4826658688342944	-0.027613850022725983	-0.12025723769931446	0.47556113144209067	-0.030313468494359785	-0.07630129650025208	0.5228629436207923	-0.015005870232663088	-0.11313467633306712	0.5354382993992006	-0.004041440460452295	-0.12018036344056138	0.5339762350229698	0.01965710904474427	-0.12844177688557812	0.49271297777936873	0.020408946419761542	-0.11793394950738328	0.5203909948723714	-0.01842093147868029	-0.09653803194620125	0.5354029384596458	-0.008521363803593807	-0.09869212330426258	0.5425076629100503	0.019150127751532464	-0.10445588905231379	0.5007924086160628	0.03318842259204824	-0.09678048950840079	0.5201763539619145	-0.010803468789286064	-0.08079723655933979	0.5355138730467786	-0.0013293254813941946	-0.08083065665747846	0.5442975656912798	0.021958090578931944	-0.08168093647036123	0.5077749911192635	0.03835149681741701	-0.0760171380513226	0.520317782134975	-0.014293633812360707	-0.06249826661177216	0.535613577376401	-0.006748965824271647	-0.061043401366508876	0.5422907890274918	0.01307548366583966	-0.059249504496405536	0.5119310564993478	0.03166530843943893	-0.053453945273480685	0.4622830810018609	-0.023011742144276925	-0.051989820119430985
29	0.9999999999999956	0.5136928862801201	-0.012675602195335922	-0.16113776073962394	0.5019979663367036	-0.01804543940981551	-0.14210111986453594	0.48222882211584206	-0.02839824335781893	-0.12040272390564122	0.4752992573047795	-0.030499489492478715	-0.07638618273972408	0.529736371030049	-0.015065207800785463	-0.1169776408771393	0.5392624668846278	-0.0013837315363990355	-0.12405370652101322	0.5337419093875411	0.022169818252059437	-0.13089209597204393	0.49313226759751116	0.019459150934792224	-0.11835633231837822	0.5291629577047718	-0.018417281048138112	-0.10072815894013576	0.5418273959960538	-0.005578000193781851	-0.10239094873721544	0.5437092391758346	0.023160843630486982	-0.10685716322949029	0.50105773991024	0.03251070780749754	-0.09739262038429963	0.5295376402864815	-0.011164146977862943	-0.08575272683069102	0.5424816199447101	0.0013393861873027824	-0.08469676802705806	0.5464531471509456	0.025917075836541126	-0.08411014876735223	0.5084151094225868	0.037538291966701554	-0.07684544950089489	0.5293759249909379	-0.01417160109787563	-0.06550620946886831	0.5428658563845281	-0.003911467677588654	-0.0631079990539678	0.545571033509624	0.016768306038836056	-0.06069118405084262	0.5128888453055753	0.030738561895589434	-0.0545601175455771	0.462283081001861	-0.023011742144276925	-0.051989820119430985
30	1.0333333333333288	0.5128950105962009	-0.015363467962067667	-0.16191273533951417	0.5013399106951493	-0.020106826965394453	-0.1426259468136274	0.4814876801841069	-0.0295520079707845	-0.12059193901858811	0.47493355048374397	-0.030796396665873527	-0.07648542157902649	0.5386661895150678	-0.014400800394745117	-0.12318859830735152	0.5433025025046004	0.0019439792410808066	-0.12946177776591844	0.5330161181766013	0.024432754578734173	-0.133984510818979	0.4936669585289438	0.017993455436602246	-0.11902405776496644	0.5414051461252591	-0.017192932819056317	-0.1074808450212828	0.5497638124468103	-0.001130200588293162	-0.10782917045499252	0.5445838580869458	0.0274695782779113	-0.10998097705269655	0.5016062216722978	0.031291172056396754	-0.09838502473291788	0.5428352937392514	-0.010088038580054803	-0.09338165277256472	0.5510835901367028	0.005614244901321008	-0.09015614505899394	0.5484588698496684	0.030213786583175084	-0.08730073415028805	0.509521419548511	0.03611886371944839	-0.07815055043302988	0.5424671511550948	-0.012946674187990004	-0.06990229775163037	0.5519936312437166	0.0006697362456129508	-0.06579869640345326	0.5489197705492016	0.021177804807090195	-0.0625150211289377	0.5143427593229487	0.02922916170725831	-0.056151893146121235	0.462283081001861	-0.023011742144276925	-0.051989820119430985
31	1.0666666666666622	0.5113556047990567	-0.018791741247338956	-0.16300400888579003	0.5001533992348762	-0.02276869285035099	-0.143339460926451	0.48036461460073365	-0.03105823620974013	-0.12078935064742274	0.47446249621519565	-0.03125553581085283	-0.07657378696866257	0.5486688126713885	-0.011358433603080531	-0.1320555222505489	0.5468266184347823	0.006167422160183733	-0.13623292576946755	0.5316965835474725	0.026203412593672093	-0.13751782446506555	0.49428384626466604	0.016014263708808985	-0.11990804229691265	0.5572279710052556	-0.011856839804848862	-0.11711862282271479	0.5583520324113346	0.006089397583356582	-0.11495782446064212	0.5447831178306839	0.03184769246336849	-0.11361456276708981	0.5023872633150092	0.02954726714544309	-0.09970602279186624	0.5600805173947074	-0.004054800587782292	-0.10317178447193781	0.560271185433509	0.012797864656270974	-0.0967724626429578	0.5498436399962428	0.03465422918678429	-0.09096336592633592	0.5109809665889724	0.034138966094809375	-0.07982119586903147	0.561474298614485	-0.0073666352697606685	-0.0753461788302352	0.5620807678730728	0.008399201852645977	-0.06870761160016736	0.5515909606943948	0.026085427010571594	-0.06446810643832157	0.5161127405351519	0.02720805742640997	-0.058071306747716656	0.462283081001861	-0.023011742144276925	-0.051989820119430985
32	1.0999999999999952	0.5089315120792736	-0.02275852963056868	-0.16436675476845453	0.4983426035528645	-0.025868618007555688	-0.14421229207388808	0.47882282433018064	-0.032797508031268796	-0.12097893884761068	0.47388032269729474	-0.03182958330003849	-0.07665597866528995	0.5567334857879567	-0.005037033852428374	-0.1425915493505115	0.5487924650644103	0.011198965193595756	-0.1437458997503957	0.5296960884815269	0.027360141546957872	-0.14126505044416388	0.49488085203158194	0.013614904820662854	-0.1209523974349545	0.5726464798502948	0.0008273278710821952	-0.12810761003546023	0.5651817963447614	0.016489606481092323	-0.12291419796778891	0.5440813723105873	0.03584807778794585	-0.11748914089529877	0.50332855333019	0.027315148033010717	-0.10128590739243493	0.5759274541943646	0.009544946863936365	-0.11220598890462197	0.5675100696282601	0.022843980359962268	-0.10341489425504125	0.5503046200902274	0.03867425537524016	-0.09483848019467322	0.5126972342669833	0.03160540018045965	-0.08178334129166298	0.5806132658645647	0.007967976136674215	-0.07849520733066917	0.5700862130809937	0.01933374186164527	-0.07121506109745523	0.5530892381878274	0.030708814806719498	-0.06646926517102558	0.5180710965216239	0.02469335564209152	-0.060270276843532145	0.462283081001861	-0.023011742144276925	-0.051989820119430985
33	1.1333333333333284	0.5056895922829714	-0.02696824166426892	-0.16586897885062651	0.4959768346376613	-0.029171068133764355	-0.1451612533727098	0.47697010051091837	-0.034630835185676334	-0.12112471864795882	0.4732107653940504	-0.03245970098924833	-0.0767282821267673	0.5607779990025814	0.0028229995509937433	-0.15275214236568357	0.5487101211428348	0.016212219405639217	-0.15099284828958087	0.5272197257937182	0.027740127936532133	-0.14488710790515302	0.495448156901408	0.010934402060986725	-0.1220447988730694	0.5810629157595197	0.017488916704497592	-0.13721842774922188	0.5680212775866491	0.027824871404562024	-0.13007114055713698	0.5425782460569085	0.038955980501652165	-0.12123032007228923	0.5043699919677261	0.024689194089677846	-0.10298926621206556	0.5840408265649795	0.025286789621321693	-0.11837849342467222	0.5708331309517068	0.03310375912236585	-0.10892059913435131	0.5498597138221857	0.04166454811412956	-0.09857610085025803	0.514521119375594	0.02862296891739924	-0.08388522651975161	0.5888197480032101	0.025315600911593905	-0.07901294073849685	0.5734886000799757	0.029997248269556298	-0.07300976812965165	0.5534325140036899	0.034151944673486034	-0.06839415028457574	0.5200472152025211	0.021790514073259604	-0.06260620518527893	0.462283081001861	-0.023011742144276925	-0.051989820119430985
34	1.1666666666666616	0.5018408232980742	-0.03118099194156132	-0.1673277879372117	0.4932149158589424	-0.032464385206522284	-0.14606875168015188	0.47493256877588175	-0.03641484435339093	-0.12118965085911282	0.4725334647780095	-0.03308735014059283	-0.07677048740153303	0.5612188454524727	0.009912459584847655	-0.1612836091146369	0.5469379305018923	0.0202786896530065	-0.15720969915634297	0.5245921608333548	0.027343776798864683	-0.14811239436084989	0.4959903568845777	0.008139735957508942	-0.12307686520248662	0.5826208630689385	0.03188468100515607	-0.14365116413987805	0.5673091407739178	0.037264239977219726	-0.13561303589841167	0.5406041809424247	0.040932000459523055	-0.1245314203373667	0.5054409620074388	0.021836117403190136	-0.10465572650220428	0.5859460952544054	0.03774820454127925	-0.12252306499848242	0.5709539533335658	0.041123197968825576	-0.11309729712581429	0.5488264491638025	0.043342134154670586	-0.10188882441896152	0.5163082787236997	0.025369382871158752	-0.08594298996198035	0.5899235392209209	0.037271396665489065	-0.07939355975213203	0.5735364121499253	0.037580066926516054	-0.0744572869649982	0.5530346387239492	0.036063158749459534	-0.07019251323450304	0.5218738118279195	0.018689107008817207	-0.06489830467522317	0.4622830810018608	-0.023011742144276925	-0.051989820119430985
